<svg xmlns="http://www.w3.org/2000/svg" xmlns:xlink="http://www.w3.org/1999/xlink" width="1024" zoomAndPan="magnify" viewBox="0 0 768 767.999994" height="1024" preserveAspectRatio="xMidYMid meet" version="1.0"><defs><clipPath id="921afa1080"><path d="M 511 38.398438 L 534 38.398438 L 534 61 L 511 61 Z M 511 38.398438 " clip-rule="nonzero"/></clipPath><clipPath id="eaf72b6c32"><path d="M 288 703 L 315 703 L 315 729.898438 L 288 729.898438 Z M 288 703 " clip-rule="nonzero"/></clipPath></defs><path fill="#457df5" d="M 759.390625 218.921875 C 750.433594 205.488281 726.082031 209.371094 712.460938 215.171875 C 704.15625 218.703125 695.476562 222.535156 688.179688 227.746094 C 678.574219 234.601562 667.71875 239.113281 657.960938 246.089844 C 646.972656 253.9375 635.253906 261.027344 622.074219 264.492188 C 608.179688 268.144531 591.523438 267.097656 579.304688 258.9375 C 560.203125 246.171875 581.792969 236.410156 574.019531 220.765625 C 570 212.710938 558.378906 211.851562 556.175781 200.699219 C 554.875 194.082031 556.675781 183.863281 552.519531 178.109375 C 547.550781 171.226562 537.589844 176.273438 531.058594 177.125 C 516.152344 179.050781 498.101562 174.210938 493.125 158.417969 C 489.78125 147.820312 492.226562 130.339844 498.582031 121.445312 C 507.523438 108.9375 518.058594 90.847656 514.226562 74.59375 C 510.007812 56.746094 488.480469 67.066406 478.320312 74.3125 C 467.492188 82.039062 465.519531 94.582031 463.769531 106.992188 C 462.992188 112.496094 462.914062 117.804688 462.988281 123.363281 C 463.09375 132.421875 461.667969 141.046875 452.601562 145.730469 C 443.964844 150.195312 436.386719 146.925781 429.585938 141.296875 C 425.039062 137.527344 421.164062 133.242188 416.476562 129.652344 C 412.882812 126.902344 410.546875 123.710938 406.230469 122.367188 C 385.832031 116.019531 363.460938 138.375 354.59375 154.488281 C 348.113281 166.285156 345.453125 183.222656 329.382812 185.207031 C 310.871094 187.484375 303.542969 168.4375 290.3125 191.496094 C 287.644531 196.144531 284.886719 201.050781 280.34375 203.894531 C 263.46875 214.457031 244.144531 178.105469 221.582031 192.679688 C 211.777344 199.015625 211.089844 208.90625 210.359375 219.371094 C 209.394531 233.089844 197.476562 248.785156 181.996094 245.234375 C 173.839844 243.359375 167.535156 236.535156 164.140625 228.886719 C 158.398438 215.953125 160.445312 200.378906 151.871094 188.464844 C 141.804688 174.484375 124.464844 183.964844 119.304688 196.957031 C 105.199219 232.503906 157.136719 245.246094 151.554688 277.242188 C 149.355469 289.886719 134.511719 294.4375 126.722656 302.878906 C 116.269531 314.21875 125.484375 318.949219 128.058594 331.960938 C 134.335938 363.664062 110.230469 363.210938 88.742188 368.257812 C 73.152344 371.921875 50.410156 380.222656 66.730469 398.671875 C 74.839844 407.832031 96.921875 402.730469 108.855469 407.105469 C 123.511719 412.476562 131.847656 422.660156 134.261719 438.214844 C 136.988281 455.808594 135.964844 460.257812 151.347656 469.734375 C 177.203125 485.664062 174.640625 512.269531 150.917969 527.511719 C 132.167969 539.566406 105.800781 542.054688 89.988281 558.453125 C 81.234375 567.527344 70.378906 587.535156 85.351562 595.460938 C 94.976562 600.554688 107.441406 594.503906 116.25 590.441406 C 134.679688 581.921875 163.675781 557.027344 185.375 566.640625 C 198.808594 572.597656 206.152344 594.515625 219.742188 596.3125 C 234.089844 598.210938 244.621094 580.957031 259.890625 583.152344 C 288.378906 587.257812 292.148438 616.078125 289.90625 639.59375 C 288.46875 654.742188 284.414062 687.644531 310.757812 679.855469 C 317.925781 677.742188 323.515625 672.195312 328.355469 666.5 C 343.4375 648.730469 356.054688 594.15625 387.375 616.363281 C 398.136719 623.992188 405.675781 614.652344 413.886719 608.917969 C 428.464844 598.730469 445.464844 589.292969 462.265625 599.386719 C 476.097656 607.6875 479.929688 623.972656 482.414062 638.789062 C 484.007812 648.277344 480.050781 679.710938 495.164062 680.59375 C 499.078125 680.820312 502.660156 678.023438 504.546875 674.582031 C 506.421875 671.144531 506.945312 667.152344 507.433594 663.261719 C 510.703125 637.128906 509.015625 605.925781 543.582031 604.085938 C 548.945312 603.804688 559.9375 609.464844 563.972656 608.101562 C 570.515625 605.886719 571.945312 596.140625 574.335938 590.507812 C 585.503906 564.148438 604.816406 587.722656 618.355469 594.253906 C 646.113281 607.636719 620.15625 566.191406 617.023438 560.015625 C 615.113281 556.253906 613.230469 552.210938 613.621094 548.011719 C 614.769531 535.886719 636.753906 535.433594 645.277344 534.039062 C 647.960938 533.601562 650.738281 533.121094 652.953125 531.53125 C 657.832031 528.027344 655.167969 522.070312 653.8125 517.480469 C 652.214844 512.152344 650.300781 506.628906 651.308594 501.164062 C 654.972656 481.238281 680 494.351562 691.367188 492.046875 C 696.375 491.035156 700.636719 486.96875 701.894531 482.015625 C 706.714844 462.964844 676.890625 451.554688 666.160156 441.839844 C 660.011719 436.277344 654 430.230469 650.574219 422.679688 C 640.859375 401.273438 661.898438 378.683594 672.164062 361.707031 C 674.953125 357.085938 677.8125 352.28125 678.425781 346.914062 C 681.035156 324.042969 631.546875 327.4375 652.261719 302.34375 C 655.875 297.960938 660.699219 294.78125 665.246094 291.367188 C 672.878906 285.628906 677.902344 279.1875 686.417969 274.511719 C 705.558594 264.003906 729.0625 264.03125 747.4375 253.140625 C 759.378906 246.0625 767.867188 231.660156 759.390625 218.921875 " fill-opacity="1" fill-rule="nonzero"/><path fill="#457df5" d="M 126.074219 168.65625 C 137.960938 168.65625 137.980469 150.1875 126.074219 150.1875 C 114.191406 150.1875 114.171875 168.65625 126.074219 168.65625 " fill-opacity="1" fill-rule="nonzero"/><path fill="#457df5" d="M 290.679688 158.738281 C 291.707031 159.53125 292.730469 160.328125 293.761719 161.121094 C 296.140625 162.5 298.703125 163.191406 301.453125 163.199219 C 303.550781 163.285156 305.507812 162.84375 307.328125 161.886719 C 309.214844 161.273438 310.851562 160.222656 312.230469 158.738281 C 313.71875 157.359375 314.773438 155.71875 315.386719 153.828125 C 316.339844 152.015625 316.777344 150.058594 316.691406 147.960938 C 316.515625 146.609375 316.335938 145.257812 316.152344 143.90625 C 315.425781 141.328125 314.117188 139.082031 312.230469 137.179688 C 311.199219 136.386719 310.175781 135.59375 309.144531 134.800781 C 306.769531 133.417969 304.207031 132.726562 301.453125 132.714844 C 299.355469 132.636719 297.398438 133.074219 295.582031 134.03125 C 293.691406 134.644531 292.054688 135.695312 290.679688 137.179688 C 289.1875 138.5625 288.140625 140.195312 287.523438 142.085938 C 286.570312 143.902344 286.128906 145.859375 286.214844 147.960938 C 286.398438 149.308594 286.574219 150.660156 286.757812 152.011719 C 287.480469 154.589844 288.789062 156.835938 290.679688 158.738281 " fill-opacity="1" fill-rule="nonzero"/><g clip-path="url(#921afa1080)"><path fill="#457df5" d="M 514.964844 57.097656 C 515.703125 57.664062 516.441406 58.230469 517.179688 58.804688 C 518.875 59.792969 520.710938 60.285156 522.6875 60.289062 C 524.191406 60.347656 525.59375 60.035156 526.890625 59.351562 C 528.242188 58.914062 529.414062 58.164062 530.40625 57.097656 C 531.472656 56.109375 532.222656 54.9375 532.660156 53.582031 C 533.347656 52.28125 533.660156 50.878906 533.605469 49.378906 C 533.472656 48.410156 533.339844 47.445312 533.210938 46.476562 C 532.695312 44.625 531.761719 43.019531 530.40625 41.65625 C 529.667969 41.089844 528.929688 40.523438 528.191406 39.949219 C 526.496094 38.964844 524.664062 38.46875 522.6875 38.457031 C 521.1875 38.402344 519.78125 38.71875 518.480469 39.402344 C 517.128906 39.839844 515.953125 40.59375 514.964844 41.65625 C 513.898438 42.644531 513.148438 43.820312 512.710938 45.167969 C 512.023438 46.46875 511.710938 47.875 511.773438 49.378906 C 511.898438 50.34375 512.027344 51.308594 512.164062 52.277344 C 512.679688 54.128906 513.609375 55.734375 514.964844 57.097656 " fill-opacity="1" fill-rule="nonzero"/></g><path fill="#457df5" d="M 724.421875 321.371094 C 704.195312 321.371094 704.164062 352.8125 724.421875 352.8125 C 744.660156 352.8125 744.691406 321.371094 724.421875 321.371094 " fill-opacity="1" fill-rule="nonzero"/><path fill="#457df5" d="M 651.0625 609.664062 C 637.476562 609.664062 637.453125 630.773438 651.0625 630.773438 C 664.652344 630.773438 664.667969 609.664062 651.0625 609.664062 " fill-opacity="1" fill-rule="nonzero"/><g clip-path="url(#eaf72b6c32)"><path fill="#457df5" d="M 301.453125 703.429688 C 284.625 703.429688 284.597656 729.582031 301.453125 729.582031 C 318.285156 729.582031 318.3125 703.429688 301.453125 703.429688 " fill-opacity="1" fill-rule="nonzero"/></g><path fill="#457df5" d="M 21.765625 373.855469 C 1.226562 373.855469 1.191406 405.78125 21.765625 405.78125 C 42.308594 405.78125 42.347656 373.855469 21.765625 373.855469 " fill-opacity="1" fill-rule="nonzero"/></svg>